<svg xmlns="http://www.w3.org/2000/svg" viewBox="0 0 128 128">
	<rect width="128" height="128" rx="16" fill="#05070d" />
	<path d="M16 96V24h20v28l25-28h25L57 56l32 40H64L42 68l-6 7v21H16Z" fill="url(#kalyan-gradient)" />
	<path d="M20 100V28h20v28l25-28h25L61 60l32 40H68L46 72l-6 7v21H20Z" fill="none" stroke="#00f5d4" stroke-width="4" opacity=".52" />
	<path d="M14 94V22h20v28l25-28h25L55 54l32 40H62L40 66l-6 7v21H14Z" fill="none" stroke="#ff2d95" stroke-width="4" opacity=".42" />
	<defs>
		<linearGradient id="kalyan-gradient" x1="16" x2="103" y1="24" y2="96" gradientUnits="userSpaceOnUse">
			<stop stop-color="#00f5d4" />
			<stop offset=".33" stop-color="#ffcf4a" />
			<stop offset=".68" stop-color="#ff2d95" />
			<stop offset="1" stop-color="#9cff6a" />
		</linearGradient>
	</defs>
</svg>
